<svg width="32" height="32" viewBox="0 0 32 32" fill="none" xmlns="http://www.w3.org/2000/svg">
<g id="Frame" clip-path="url(#clip0_228_5506)">
<g id="Group">
<path id="Vector" d="M16 0C7.25714 0 0 7.07143 0 16C0 24.9286 7.25714 32 16 32C24.9286 32 32 24.9286 32 16C32 7.07143 24.7429 0 16 0ZM16 23.95C14.8821 23.95 14.1393 23.2071 14.1393 22.0893C14.1393 20.9714 15.0679 20.2286 16 20.2286C17.1179 20.2286 17.8607 21.1571 17.8607 22.0893C17.8607 23.2036 16.9286 23.95 16 23.95ZM13.9536 17.1143V9.38214C13.9536 8.26429 14.8821 7.52143 15.8143 7.52143C16.9321 7.52143 17.675 8.45 17.675 9.38214V16.4357C17.675 17.5536 16.7464 18.2964 15.8143 18.2964C14.6964 18.2964 13.9536 17.3679 13.9536 16.4357V17.1143Z" fill="#F24822"/>
</g>
</g>
<defs>
<clipPath id="clip0_228_5506">
<rect width="32" height="32" fill="white"/>
</clipPath>
</defs>
</svg>
