<svg width="31" height="31" viewBox="0 0 31 31" fill="none" xmlns="http://www.w3.org/2000/svg">
<g id="Frame">
<path id="Vector" d="M28.9887 13.5962C28.9887 12.2251 27.6568 11.1132 26.0145 11.1132H20.0058V4.35413C20.0058 2.98304 18.6739 1.87109 17.0316 1.87109H13.4818C11.8395 1.87109 10.5076 2.98304 10.5076 4.35413V11.1132H4.84238C3.20008 11.1132 1.86816 12.2251 1.86816 13.5962V16.5584C1.86816 17.1339 2.10321 17.6643 2.49495 18.0862C2.1002 18.508 1.86816 19.0384 1.86816 19.614V26.5056C1.86816 27.8767 3.20008 28.9886 4.84238 28.9886H26.0115C27.6538 28.9886 28.9857 27.8767 28.9857 26.5056V19.614C28.9857 19.0384 28.7506 18.508 28.3589 18.0862C28.7537 17.6643 28.9857 17.1339 28.9857 16.5584V13.5962H28.9887ZM26.7588 26.5056L26.7528 26.5779C26.7106 26.8883 26.3942 27.1263 26.0145 27.1263H25.2129V22.9136H23.2994V27.1263H19.3278V22.9136H17.4143V27.1263H13.4426V22.9136H11.5291V27.1263H7.56046V22.9136H5.64696V27.1263H4.8454L4.75801 27.1233C4.38736 27.0872 4.10109 26.825 4.10109 26.5056V19.614L4.10712 19.5416C4.14026 19.3096 4.32408 19.1167 4.5772 19.0354C4.66761 19.0414 4.75499 19.0444 4.84841 19.0444H26.0175C26.1079 19.0444 26.1983 19.0414 26.2887 19.0354C26.5659 19.1258 26.7618 19.3518 26.7618 19.614V26.5056H26.7588ZM26.7588 16.5584L26.7528 16.6307C26.7196 16.8627 26.5358 17.0556 26.2857 17.1369C26.1953 17.1309 26.1049 17.1279 26.0145 17.1279H4.84238C4.75198 17.1279 4.66158 17.1309 4.57118 17.1369C4.29395 17.0465 4.09807 16.8205 4.09807 16.5584V13.5962L4.1041 13.5239C4.14629 13.2135 4.4627 12.9754 4.84238 12.9754H12.7375V4.35112L12.7435 4.27879C12.7857 3.96842 13.1021 3.73036 13.4818 3.73036H17.0285L17.1159 3.73337C17.4866 3.76953 17.7729 4.0317 17.7729 4.35112V12.9754H26.0115L26.0989 12.9785C26.4695 13.0146 26.7558 13.2768 26.7558 13.5962V16.5584H26.7588Z" fill="#8A8EA8"/>
</g>
</svg>
