<svg width="25" height="24" viewBox="0 0 25 24" fill="none" xmlns="http://www.w3.org/2000/svg">
<g clip-path="url(#clip0_292_9782)">
<path d="M23.7945 20.1358H17.0948C16.9632 20.1358 16.8556 20.2436 16.8556 20.3752V21.8107C16.8556 21.9423 16.9632 22.0501 17.0948 22.0501H23.7943C23.9259 22.0501 24.0335 21.9423 24.0335 21.8107V20.3752C24.0337 20.2434 23.9261 20.1358 23.7945 20.1358ZM8.40669 11.9528C8.37985 11.6926 8.36475 11.4294 8.36475 11.1632C8.36475 10.6877 8.40957 10.2242 8.49345 9.77249C8.5143 9.66488 8.4575 9.55416 8.35876 9.50935C7.95207 9.32697 7.57821 9.07558 7.25516 8.75852C6.48348 8.00505 6.06792 6.98509 6.09764 5.90545C6.12472 4.94516 6.51056 4.03305 7.18351 3.34525C7.92212 2.58842 8.91524 2.17574 9.9709 2.18772C10.925 2.19659 11.8462 2.56446 12.5431 3.21655C12.7794 3.43799 12.9826 3.68315 13.1532 3.94629C13.2129 4.03904 13.3296 4.07786 13.4312 4.04215C13.9578 3.85954 14.514 3.73109 15.0853 3.67117C15.2528 3.6532 15.3485 3.4737 15.2737 3.32416C14.3014 1.40118 12.3157 0.0732697 10.0188 0.0373218C6.7018 -0.0134845 3.93837 2.70513 3.93837 6.01593C3.93837 7.89433 4.8028 9.56926 6.15755 10.6669C5.20637 11.1064 4.3302 11.7137 3.5705 12.4734C1.93152 14.1092 1.00431 16.2685 0.944392 18.5744C0.941516 18.7089 1.04912 18.8196 1.18381 18.8196H2.86161C2.99031 18.8196 3.09791 18.718 3.10079 18.5893C3.15782 16.8547 3.86048 15.2306 5.09589 13.9983C5.97518 13.119 7.05194 12.5088 8.22719 12.2129C8.3439 12.1831 8.42155 12.0724 8.40669 11.9528ZM21.8802 11.1632C21.8802 7.89121 19.2512 5.23251 15.9912 5.18146C12.6773 5.13066 9.91674 7.84951 9.91674 11.1632C9.91674 13.0416 10.7843 14.7165 12.1362 15.8141C11.1879 16.2536 10.3146 16.8578 9.55199 17.6206C7.91301 19.2565 6.98579 21.416 6.92588 23.7188C6.923 23.8535 7.03061 23.9642 7.16529 23.9642H8.84022C8.96868 23.9642 9.07652 23.8624 9.0794 23.7339C9.13619 21.9991 9.8391 20.3752 11.0743 19.1429C12.3634 17.8538 14.0742 17.1449 15.8985 17.1449C19.2004 17.1449 21.8802 14.4682 21.8802 11.1632ZM18.6053 13.8701C17.8816 14.5938 16.9215 14.9916 15.8985 14.9916C14.8756 14.9916 13.9156 14.5938 13.1918 13.8701C12.459 13.1372 12.0614 12.1623 12.0703 11.1244C12.0791 10.1435 12.471 9.1954 13.1559 8.4925C13.8736 7.75677 14.8339 7.34696 15.8596 7.33498C16.8736 7.32611 17.8576 7.72082 18.5814 8.42971C19.3231 9.15634 19.7298 10.1284 19.7298 11.1632C19.7269 12.1863 19.3291 13.1461 18.6053 13.8701Z" fill="#2C2C2C"/>
</g>
<defs>
<clipPath id="clip0_292_9782">
<rect width="24" height="24" fill="white" transform="translate(0.5)"/>
</clipPath>
</defs>
</svg>
