<svg width="24" height="24" viewBox="0 0 24 24" fill="none" xmlns="http://www.w3.org/2000/svg">
<g clip-path="url(#clip0_101_3561)">
<path d="M0.541016 5.3389C0.541016 4.46723 1.04502 3.61006 2.03526 2.88575C3.90474 1.51799 7.6623 0.543945 11.9999 0.543945C16.3377 0.543945 20.0951 1.51811 21.9647 2.88587C22.9547 3.61019 23.459 4.46734 23.459 5.33902V19.0567C23.459 19.3015 23.3366 19.5177 23.1499 19.6479C22.9019 20.1039 22.5059 20.5395 21.9647 20.9354C20.0951 22.3032 16.3377 23.2773 11.9999 23.2773C7.6623 23.2773 3.90474 22.3032 2.03514 20.9354C1.49394 20.5394 1.09794 20.1038 0.850136 19.6478C0.754705 19.5816 0.67674 19.4932 0.622907 19.3903C0.569074 19.2873 0.540976 19.1729 0.541016 19.0567V5.3389ZM22.019 5.3389C22.019 5.0521 21.8767 4.7845 21.6501 4.5265C21.3448 4.17875 20.8947 3.86195 20.3349 3.57239C18.4555 2.59955 15.4191 1.98383 11.9999 1.98383C8.5809 1.98383 5.54454 2.59967 3.6651 3.57239C3.1053 3.86195 2.65518 4.17875 2.3499 4.5265C2.1231 4.7845 1.98102 5.0521 1.98102 5.3389C1.98102 5.6257 2.12322 5.89306 2.3499 6.15119C2.65518 6.49895 3.1053 6.81562 3.6651 7.10542C5.54454 8.0779 8.5809 8.69374 11.9999 8.69374C15.4191 8.69374 18.4555 8.0779 20.3349 7.10542C20.8947 6.81562 21.3448 6.49895 21.6501 6.15119C21.8767 5.89306 22.019 5.62558 22.019 5.33878V5.3389ZM22.019 18.4821V7.75174L21.9647 7.79194C20.0951 9.1597 16.3377 10.1337 11.9999 10.1337C7.6623 10.1337 3.90474 9.1597 2.03514 7.79194C2.01703 7.77859 1.99899 7.76515 1.98102 7.75162V18.4821C1.98102 18.7689 2.12322 19.0365 2.3499 19.2947C2.65518 19.6423 3.1053 19.9591 3.6651 20.2487C5.54454 21.2214 8.5809 21.8372 11.9999 21.8372C15.4191 21.8372 18.4555 21.2214 20.3349 20.2487C20.8947 19.9591 21.3448 19.6423 21.6501 19.2947C21.8767 19.0365 22.019 18.7691 22.019 18.4823V18.4821ZM20.6063 15.7197C20.772 15.6248 20.9685 15.5995 21.1528 15.6494C21.3371 15.6993 21.494 15.8204 21.5891 15.9859C21.6841 16.1515 21.7094 16.3481 21.6595 16.5323C21.6097 16.7166 21.4887 16.8736 21.3232 16.9687C19.3228 18.1166 15.8951 18.896 11.9999 18.896C8.08914 18.896 4.64922 18.1101 2.65218 16.9544C2.48698 16.8587 2.36654 16.7013 2.31731 16.5169C2.26808 16.3324 2.29408 16.136 2.38962 15.9707C2.48533 15.8055 2.6427 15.685 2.82716 15.6358C3.01162 15.5866 3.20808 15.6126 3.37338 15.7081C5.21454 16.7737 8.39442 17.456 11.9999 17.456C15.5921 17.456 18.7617 16.7785 20.6063 15.7197ZM20.6063 11.0457C20.772 10.9508 20.9685 10.9255 21.1528 10.9753C21.337 11.0252 21.494 11.1462 21.5891 11.3117C21.6841 11.4773 21.7094 11.6738 21.6595 11.8581C21.6097 12.0424 21.4887 12.1993 21.3232 12.2945C19.3228 13.4425 15.8951 14.2219 11.9999 14.2219C8.08914 14.2219 4.64922 13.4359 2.65218 12.2803C2.48695 12.1846 2.36648 12.0272 2.31725 11.8427C2.26802 11.6582 2.29404 11.4617 2.38962 11.2964C2.48533 11.1312 2.6427 11.0108 2.82716 10.9616C3.01162 10.9123 3.20808 10.9383 3.37338 11.0339C5.21454 12.0995 8.39442 12.7819 11.9999 12.7819C15.5921 12.7819 18.7617 12.1044 20.6063 11.0456V11.0457Z" fill="#2F3367"/>
</g>
<defs>
<clipPath id="clip0_101_3561">
<rect width="24" height="24" fill="white"/>
</clipPath>
</defs>
</svg>
