<svg width="23" height="23" viewBox="0 0 23 23" fill="none" xmlns="http://www.w3.org/2000/svg">
<g id="Frame" clip-path="url(#clip0_128_3516)">
<path id="Vector" d="M4.94995 6.4155C4.57054 6.4155 4.26241 6.10985 4.26241 5.7335C4.26241 5.35703 4.57054 5.0515 4.94995 5.0515H13.4762C13.8556 5.0515 14.1638 5.35703 14.1638 5.7335C14.1638 6.10985 13.8556 6.4155 13.4762 6.4155H4.94995ZM4.94995 10.3037C4.57054 10.3037 4.26241 9.99817 4.26241 9.6217C4.26241 9.24535 4.57054 8.9397 4.94995 8.9397H13.4762C13.8556 8.9397 14.1638 9.24535 14.1638 9.6217C14.1638 9.99817 13.8556 10.3037 13.4762 10.3037H4.94995ZM5.05239 14.1919C4.67299 14.1919 4.36485 13.8864 4.36485 13.5099C4.36485 13.1336 4.67299 12.8279 5.05239 12.8279H7.99941C8.37882 12.8279 8.68695 13.1336 8.68695 13.5099C8.68695 13.8864 8.37882 14.1919 7.99941 14.1919H5.05239ZM12.2306 17.2941C12.0916 17.1771 12.005 17.0102 11.99 16.8299C11.975 16.6497 12.0327 16.4709 12.1505 16.3328C12.2685 16.1949 12.4368 16.1091 12.6185 16.0942C12.8002 16.0794 12.9805 16.1366 13.1196 16.2535L16.0342 18.7036L21.224 13.9998C21.3587 13.8779 21.5366 13.814 21.7187 13.8221C21.9009 13.8303 22.0723 13.9098 22.1954 14.0432C22.3183 14.1768 22.3827 14.3533 22.3745 14.534C22.3663 14.7147 22.2861 14.8847 22.1516 15.0068L16.515 20.1154C16.3916 20.2273 16.2313 20.2907 16.0641 20.2938C15.8969 20.2969 15.7344 20.2395 15.6068 20.1323L12.2306 17.2941ZM18.055 10.615C18.055 10.9915 17.7469 11.297 17.3675 11.297C16.988 11.297 16.6799 10.9915 16.6799 10.615V2.04955H1.95125V20.6768L11.1507 20.5712C11.3331 20.5692 11.5087 20.6391 11.6391 20.7655C11.7695 20.8919 11.844 21.0644 11.8462 21.2453C11.8482 21.4261 11.7778 21.6004 11.6504 21.7297C11.5229 21.8591 11.349 21.9329 11.1667 21.9351L1.27162 22.0488C1.18066 22.0499 1.0904 22.033 1.00607 21.9992C0.921744 21.9654 0.845026 21.9153 0.780371 21.8518C0.715658 21.7884 0.664284 21.7129 0.629231 21.6296C0.594178 21.5464 0.576142 21.457 0.576172 21.3668V1.36755C0.576172 1.18667 0.648609 1.0132 0.777547 0.885301C0.906486 0.7574 1.08136 0.685547 1.26371 0.685547H17.3675C17.5498 0.685547 17.7247 0.7574 17.8536 0.885301C17.9826 1.0132 18.055 1.18667 18.055 1.36755V10.615Z" fill="#2F3367"/>
</g>
<defs>
<clipPath id="clip0_128_3516">
<rect width="22.918" height="22.7334" fill="white"/>
</clipPath>
</defs>
</svg>
