<svg width="23" height="23" viewBox="0 0 23 23" fill="none" xmlns="http://www.w3.org/2000/svg">
<g id="Frame" clip-path="url(#clip0_296_4491)">
<path id="Vector" d="M17.1799 1.54955V2.04955V10.615C17.1799 10.7116 17.2603 10.797 17.3675 10.797C17.4746 10.797 17.555 10.7115 17.555 10.615V1.36755C17.555 1.32059 17.5362 1.27473 17.5015 1.24028C17.4667 1.2057 17.4185 1.18555 17.3675 1.18555H1.26371C1.21267 1.18555 1.16453 1.2057 1.12967 1.24028C1.09494 1.27473 1.07617 1.32059 1.07617 1.36755V21.3668V21.367C1.07616 21.3904 1.08085 21.4137 1.09006 21.4356C1.09927 21.4575 1.11288 21.4776 1.13031 21.4947L1.13063 21.495C1.14803 21.5121 1.16891 21.5258 1.19217 21.5351C1.21543 21.5444 1.24045 21.5491 1.26575 21.5488L1.26587 21.5488L11.1607 21.4352L11.1609 21.4352L11.1667 21.9351C11.349 21.9329 11.5229 21.8591 11.6504 21.7297C11.7778 21.6004 11.8482 21.4261 11.8462 21.2453L17.1799 1.54955ZM17.1799 1.54955H16.6799H1.95125H1.45125V2.04955V20.6768V21.1826L1.95699 21.1768L11.1563 21.0712L11.1507 20.5712L11.1565 21.0712L17.1799 1.54955ZM4.94995 5.9155C4.84287 5.9155 4.76241 5.8299 4.76241 5.7335C4.76241 5.63703 4.84281 5.5515 4.94995 5.5515H13.4762C13.5834 5.5515 13.6638 5.63703 13.6638 5.7335C13.6638 5.8299 13.5833 5.9155 13.4762 5.9155H4.94995ZM4.94995 9.80371C4.84281 9.80371 4.76241 9.71817 4.76241 9.6217C4.76241 9.5253 4.84287 9.4397 4.94995 9.4397H13.4762C13.5833 9.4397 13.6638 9.5253 13.6638 9.6217C13.6638 9.71817 13.5834 9.80371 13.4762 9.80371H4.94995ZM5.05239 13.6919C4.94526 13.6919 4.86485 13.6064 4.86485 13.5099C4.86485 13.4135 4.94531 13.3279 5.05239 13.3279H7.99941C8.1065 13.3279 8.18695 13.4135 8.18695 13.5099C8.18695 13.6064 8.10655 13.6919 7.99941 13.6919H5.05239Z" fill="#2F3367" stroke="#2F3367"/>
<path id="Vector 719" d="M13 13.5L19.5 20.5M13 20.5L19.5 13.5" stroke="#2F3367" stroke-linecap="round"/>
</g>
<defs>
<clipPath id="clip0_296_4491">
<rect width="22.918" height="22.7334" fill="white"/>
</clipPath>
</defs>
</svg>
