<svg width="25" height="24" viewBox="0 0 25 24" fill="none" xmlns="http://www.w3.org/2000/svg">
<path d="M12.6414 22.2867C10.5846 22.2867 8.57395 21.6768 6.86378 20.534C5.15362 19.3913 3.82072 17.7671 3.03367 15.8668C2.24661 13.9665 2.04074 11.8755 2.4421 9.85826C2.84345 7.84098 3.834 5.98802 5.28847 4.53372C6.74295 3.07941 8.59602 2.08908 10.6133 1.68796C12.6307 1.28684 14.7216 1.49295 16.6218 2.28022C18.522 3.0675 20.1461 4.40058 21.2886 6.11087C22.4311 7.82117 23.0408 9.83187 23.0406 11.8887C23.0371 14.6455 21.9403 17.2885 19.9908 19.2377C18.0413 21.187 15.3983 22.2835 12.6414 22.2867ZM12.6414 2.92949C10.8694 2.92949 9.13726 3.45493 7.66393 4.43938C6.19059 5.42383 5.04227 6.82307 4.36417 8.46015C3.68607 10.0972 3.50865 11.8986 3.85434 13.6365C4.20003 15.3745 5.05331 16.9708 6.30628 18.2238C7.55925 19.4768 9.15562 20.33 10.8935 20.6757C12.6315 21.0214 14.4328 20.844 16.0699 20.1659C17.707 19.4878 19.1062 18.3395 20.0907 16.8662C21.0751 15.3928 21.6006 13.6606 21.6006 11.8887C21.5977 9.51344 20.6529 7.23629 18.9733 5.55673C17.2938 3.87717 15.0166 2.93234 12.6414 2.92949Z" fill="#474747"/>
<path d="M13.2982 17.5375C13.0539 17.5378 12.8155 17.462 12.6162 17.3208C12.4169 17.1795 12.2664 16.9797 12.1858 16.7491L10.9402 13.2007L7.64016 12.0511C7.40889 11.9711 7.20833 11.8209 7.06638 11.6215C6.92443 11.4221 6.84814 11.1835 6.84814 10.9387C6.84814 10.694 6.92443 10.4553 7.06638 10.256C7.20833 10.0566 7.40889 9.90642 7.64016 9.82634L15.487 7.07234C15.6933 6.99992 15.9157 6.98636 16.1294 7.03317C16.343 7.07997 16.5394 7.1853 16.6965 7.33736C16.8537 7.48942 16.9655 7.68222 17.0193 7.89419C17.0731 8.10615 17.0669 8.32891 17.0014 8.53754L14.4202 16.7131C14.3458 16.9492 14.1991 17.1559 14.0007 17.3039C13.8023 17.4518 13.5624 17.5336 13.315 17.5375H13.2982ZM8.82096 10.9375L11.533 11.8807C11.6993 11.939 11.8504 12.034 11.975 12.1587C12.0997 12.2833 12.1946 12.4344 12.253 12.6007L13.279 15.5299L15.4654 8.60474L8.82096 10.9375Z" fill="#336BFF"/>
</svg>
