<svg width="24" height="24" viewBox="0 0 24 24" fill="none" xmlns="http://www.w3.org/2000/svg">
<g clip-path="url(#clip0_101_3071)">
<path d="M5.1838 6.77234C4.78648 6.77234 4.4638 6.44966 4.4638 6.05234C4.4638 5.6549 4.78648 5.33234 5.1838 5.33234H14.1126C14.51 5.33234 14.8326 5.6549 14.8326 6.05234C14.8326 6.44966 14.51 6.77234 14.1126 6.77234H5.1838ZM5.1838 10.8772C4.78648 10.8772 4.4638 10.5546 4.4638 10.1572C4.4638 9.75986 4.78648 9.43718 5.1838 9.43718H14.1126C14.51 9.43718 14.8326 9.75986 14.8326 10.1572C14.8326 10.5546 14.51 10.8772 14.1126 10.8772H5.1838ZM5.29108 14.982C4.89376 14.982 4.57108 14.6595 4.57108 14.262C4.57108 13.8647 4.89376 13.542 5.29108 13.542H8.37724C8.77456 13.542 9.09724 13.8647 9.09724 14.262C9.09724 14.6595 8.77456 14.982 8.37724 14.982H5.29108ZM12.8082 18.2571C12.6626 18.1336 12.572 17.9573 12.5562 17.767C12.5405 17.5767 12.601 17.388 12.7244 17.2422C12.8479 17.0966 13.0242 17.0061 13.2144 16.9903C13.4047 16.9746 13.5935 17.0351 13.7392 17.1585L16.7914 19.7451L22.2262 14.7792C22.3672 14.6505 22.5536 14.5831 22.7443 14.5917C22.935 14.6002 23.1146 14.6842 23.2434 14.8251C23.3721 14.9661 23.4396 15.1524 23.431 15.3432C23.4224 15.5339 23.3385 15.7134 23.1976 15.8423L17.2949 21.2356C17.1656 21.3537 16.9978 21.4206 16.8227 21.4239C16.6476 21.4272 16.4774 21.3665 16.3438 21.2533L12.8082 18.2571ZM18.9076 11.2059C18.9076 11.6033 18.5849 11.9259 18.1876 11.9259C17.7902 11.9259 17.4676 11.6033 17.4676 11.2059V2.16314H2.04352V21.8283L11.6774 21.7168C11.8683 21.7146 12.0522 21.7884 12.1888 21.9218C12.3254 22.0553 12.4034 22.2375 12.4056 22.4284C12.4077 22.6193 12.334 22.8032 12.2006 22.9398C12.0671 23.0764 11.8849 23.1544 11.694 23.1567L1.3318 23.2767C1.23655 23.2778 1.14203 23.26 1.05371 23.2243C0.965404 23.1886 0.885063 23.1357 0.817356 23.0687C0.749588 23.0018 0.695788 22.922 0.65908 22.8341C0.622371 22.7462 0.603485 22.6519 0.603516 22.5567V1.44314C0.603516 1.25219 0.679373 1.06905 0.814399 0.934028C0.949425 0.799001 1.13256 0.723145 1.32352 0.723145H18.1876C18.3786 0.723145 18.5617 0.799001 18.6967 0.934028C18.8317 1.06905 18.9076 1.25219 18.9076 1.44314V11.2059Z" fill="#2F3367"/>
</g>
<defs>
<clipPath id="clip0_101_3071">
<rect width="24" height="24" fill="white"/>
</clipPath>
</defs>
</svg>
