<svg width="24" height="24" viewBox="0 0 24 24" fill="none" xmlns="http://www.w3.org/2000/svg">
<path d="M8.63991 9.05995H1.56375C1.16631 9.05995 0.84375 8.73727 0.84375 8.33995C0.84375 7.94263 1.16631 7.61995 1.56375 7.61995H9.07767L10.8455 1.80499C10.9011 1.62234 11.0269 1.46923 11.1954 1.37931C11.3638 1.28939 11.561 1.27003 11.7437 1.32547C11.9264 1.38108 12.0795 1.50694 12.1694 1.67539C12.2593 1.84384 12.2786 2.0411 12.2231 2.22379L10.5827 7.61995H16.0811L17.849 1.80499C17.9045 1.62234 18.0304 1.46923 18.1988 1.37931C18.3672 1.28939 18.5645 1.27003 18.7472 1.32547C18.9298 1.38106 19.083 1.5069 19.1729 1.67535C19.2629 1.8438 19.2822 2.04106 19.2268 2.22379L17.5864 7.61995H22.4373C22.8347 7.61995 23.1573 7.94263 23.1573 8.33995C23.1573 8.73727 22.8347 9.05995 22.4373 9.05995H17.1485L15.3611 14.94H22.4373C22.8347 14.94 23.1573 15.2626 23.1573 15.66C23.1573 16.0573 22.8347 16.38 22.4373 16.38H14.9234L13.1555 22.1949C13.0999 22.3776 12.9741 22.5307 12.8057 22.6206C12.6372 22.7105 12.44 22.7299 12.2573 22.6744C12.0747 22.6188 11.9215 22.493 11.8316 22.3245C11.7418 22.1561 11.7224 21.9588 11.7779 21.7761L13.4183 16.38H7.91991L6.15207 22.1949C6.09649 22.3776 5.97065 22.5307 5.80223 22.6206C5.6338 22.7105 5.43657 22.7299 5.25387 22.6744C5.07118 22.6188 4.91804 22.493 4.8281 22.3246C4.73816 22.1561 4.71879 21.9588 4.77423 21.7761L6.41463 16.38H1.56375C1.16631 16.38 0.84375 16.0573 0.84375 15.66C0.84375 15.2626 1.16631 14.94 1.56375 14.94H6.85251L8.63991 9.05995ZM15.6435 9.05995H10.1451L8.35755 14.94H13.856L15.6435 9.05995Z" fill="#2F3367"/>
</svg>
